<?xml version="1.0" encoding="UTF-8" standalone="no"?>
<svg
   xmlns:dc="http://purl.org/dc/elements/1.1/"
   xmlns:cc="http://creativecommons.org/ns#"
   xmlns:rdf="http://www.w3.org/1999/02/22-rdf-syntax-ns#"
   xmlns:svg="http://www.w3.org/2000/svg"
   xmlns="http://www.w3.org/2000/svg"
   viewBox="0 0 241.89333 241.89333"
   height="241.89333"
   width="241.89333"
   xml:space="preserve"
   id="svg2"
   version="1.1"><metadata
     id="metadata8"><rdf:RDF><cc:Work
         rdf:about=""><dc:format>image/svg+xml</dc:format><dc:type
           rdf:resource="http://purl.org/dc/dcmitype/StillImage" /><dc:title></dc:title></cc:Work></rdf:RDF></metadata><defs
     id="defs6" /><g
     transform="matrix(1.3333333,0,0,-1.3333333,0,241.89333)"
     id="g10"><g
       transform="scale(0.1)"
       id="g12"><path
         id="path14"
         style="fill:#ffffff;fill-opacity:1;fill-rule:nonzero;stroke:none"
         d="M 1814.17,0 H 0 V 1814.18 H 1814.17 V 0" /><path
         id="path16"
         style="fill:#231f20;fill-opacity:1;fill-rule:nonzero;stroke:none"
         d="m 765.172,1508.13 v 0 c -16.168,16.18 -38.613,26.19 -63.613,26.19 -24.957,0 -47.219,-10.01 -63.2,-26.19 h -0.421 c -16.102,-16.12 -26.102,-38.64 -26.102,-63.54 0,-25 10,-47.32 26.102,-63.34 l 0.421,-0.35 c 15.981,-16.12 38.243,-26.02 63.2,-26.02 25,0 47.445,9.9 63.613,26.02 l 0.183,0.35 c 16.2,16.02 26.063,38.34 26.063,63.34 0,24.9 -9.863,47.42 -26.063,63.54 z M 701.559,279.859 v 0 c 25,0 47.445,10.2 63.613,26.102 l 0.183,0.48 c 16.2,15.938 26.063,38.43 26.063,63.149 0,25 -9.863,47.41 -26.063,63.582 h -0.183 c -16.168,16.43 -38.613,26.34 -63.613,26.34 -24.957,0 -47.219,-9.91 -63.2,-26.34 h -0.421 C 621.836,417 611.836,394.59 611.836,369.59 c 0,-24.719 10,-47.211 26.102,-63.149 l 0.421,-0.48 c 15.981,-15.902 38.243,-26.102 63.2,-26.102 z m 488.851,271.86 v 0 c 22.21,5.84 42.35,20.109 54.61,41.652 l 1.68,3.149 v 0 c 10.91,20.492 12.91,44.109 7.08,65.011 -5.88,22.391 -20.31,42.231 -41.84,54.61 l -1.26,0.859 c -20.97,11.449 -44.86,13.98 -66.81,8.07 -22.31,-5.57 -42.35,-20.492 -54.57,-41.851 -12.37,-21.239 -14.97,-45.649 -9.04,-68.168 6.12,-22.11 20.43,-42.121 41.81,-54.621 h 0.15 c 21.42,-12.309 45.68,-14.571 68.19,-8.711 z M 793.59,999.035 v 0 c -23.567,23.515 -56.063,38.245 -92.031,38.245 -35.914,0 -68.34,-14.73 -91.864,-38.245 -23.406,-23.406 -37.859,-55.832 -37.859,-91.754 0,-36.019 14.453,-68.515 37.859,-92.222 23.524,-23.36 55.95,-37.969 91.864,-37.969 35.968,0 68.464,14.609 92.031,37.969 23.48,23.707 37.93,56.203 37.93,92.222 0,35.922 -14.45,68.348 -37.93,91.754 z m -51.754,152.955 v 0 c 52.227,-8.59 99.117,-33.59 134.961,-69.71 h 0.273 c 5.688,-5.76 11.254,-11.94 16.375,-18.24 l 89.598,51.87 c -12.059,36.36 -12.594,74.43 -2.914,110.1 12.781,47.74 43.751,90.51 90.181,117.38 l 1.53,0.92 c 45.92,26.03 98.14,31.39 145.27,18.63 47.75,-12.8 90.79,-43.89 117.61,-90.29 v -0.07 c 26.65,-46.15 32.07,-99.07 19.34,-146.69 -12.69,-47.77 -43.8,-90.81 -90.18,-117.48 l -12.23,-7.27 h -1.24 c -42.93,-20.437 -90.1,-23.585 -133.43,-12.21 -35.62,9.468 -68.24,29.3 -93.8,57.49 l -89.457,-51.643 c 10.293,-27.203 15.972,-56.554 15.972,-87.496 0,-30.851 -5.679,-60.574 -15.972,-87.972 l 89.457,-51.457 c 25.56,28.597 58.18,48.007 93.8,57.472 47.74,13.067 100.64,7.52 146.9,-19.453 l 2.96,-1.371 v -0.199 c 44.67,-27.02 74.67,-68.871 87.22,-116.102 12.73,-47.32 7.31,-100.25 -19.34,-146.48 l -1.63,-3.258 v 0 l -0.19,0.289 c -26.8,-44.531 -69.02,-74.711 -115.64,-87.512 -47.82,-12.597 -100.75,-7.207 -146.95,19.34 v 0.371 c -46.43,26.891 -77.4,69.75 -90.181,117.41 -9.68,35.59 -9.145,73.621 2.914,110.012 l -89.598,51.688 c -5.121,-6.309 -10.687,-12.207 -16.375,-17.957 l -0.273,-0.293 C 840.953,695.859 794.063,670.891 741.836,662.57 V 559.02 c 37.227,-7.77 70.504,-26.372 96.621,-52.489 v 0 l 0.133,-0.269 c 35,-34.813 56.668,-83.332 56.668,-136.672 0,-53.149 -21.668,-101.41 -56.668,-136.399 l -0.133,-0.531 v 0 c -35.23,-35.012 -83.562,-56.699 -136.898,-56.699 -53.051,0 -101.532,21.687 -136.664,56.699 h -0.145 v 0.531 c -35.043,34.989 -56.742,83.25 -56.742,136.399 0,53.34 21.699,101.859 56.742,136.672 v 0.269 h 0.145 c 26.066,26.117 59.453,44.719 96.531,52.489 v 103.55 c -52.223,8.321 -99.043,33.289 -134.824,69.239 l -0.364,0.293 c -44.675,44.886 -72.691,106.664 -72.691,175.179 0,68.348 28.016,130.069 72.691,174.999 h 0.364 c 35.781,36.12 82.601,61.12 134.824,69.71 v 103.08 c -37.078,8.06 -70.465,26.65 -96.531,52.59 h -0.145 v 0.27 c -35.043,35.19 -56.742,83.32 -56.742,136.66 0,53.06 21.699,101.64 56.742,136.65 v 0 l 0.145,0.2 c 35.132,35.1 83.613,56.79 136.664,56.79 53.336,0 101.668,-21.69 136.898,-56.79 v -0.2 h 0.133 c 35,-35.01 56.668,-83.59 56.668,-136.65 0,-53.34 -21.668,-101.47 -56.668,-136.66 l -0.133,-0.27 c -26.117,-25.94 -59.394,-44.53 -96.621,-52.59 v -103.08 z m 503.184,68.71 -0.72,1.12 c -12.36,20.83 -32.09,34.71 -53.89,40.75 -22.51,5.92 -46.77,3.43 -68.34,-8.9 h 0.15 c -21.53,-12.23 -35.95,-32.22 -41.96,-54.65 -5.93,-22.22 -3.33,-46.75 9.04,-68.1 l 0.42,-0.59 c 12.4,-21.11 32.12,-35.27 54.15,-41.03 22.14,-6.17 46.81,-3.57 68.07,8.82 l 1.14,0.53 c 20.94,12.5 34.87,32.27 40.7,53.91 5.94,22.3 3.56,46.75 -8.76,68.14 v 0" /></g></g></svg>