<?xml version="1.0" encoding="UTF-8" standalone="no"?>
<svg
   viewBox="0 0 241.89333 241.89333"
   height="241.89333"
   width="241.89333"
   xml:space="preserve"
   id="svg2"
   version="1.1"
   sodipodi:docname="logo.svg"
   inkscape:version="1.4.1 (93de688d07, 2025-03-30)"
   xmlns:inkscape="http://www.inkscape.org/namespaces/inkscape"
   xmlns:sodipodi="http://sodipodi.sourceforge.net/DTD/sodipodi-0.dtd"
   xmlns="http://www.w3.org/2000/svg"
   xmlns:svg="http://www.w3.org/2000/svg"
   xmlns:rdf="http://www.w3.org/1999/02/22-rdf-syntax-ns#"
   xmlns:cc="http://creativecommons.org/ns#"
   xmlns:dc="http://purl.org/dc/elements/1.1/"><sodipodi:namedview
     id="namedview1"
     pagecolor="#ffffff"
     bordercolor="#999999"
     borderopacity="1"
     inkscape:showpageshadow="0"
     inkscape:pageopacity="0"
     inkscape:pagecheckerboard="0"
     inkscape:deskcolor="#d1d1d1"
     inkscape:zoom="0.90509668"
     inkscape:cx="229.8097"
     inkscape:cy="230.91456"
     inkscape:window-width="1916"
     inkscape:window-height="1031"
     inkscape:window-x="1920"
     inkscape:window-y="27"
     inkscape:window-maximized="1"
     inkscape:current-layer="svg2" /><metadata
     id="metadata8"><rdf:RDF><cc:Work
         rdf:about=""><dc:format>image/svg+xml</dc:format><dc:type
           rdf:resource="http://purl.org/dc/dcmitype/StillImage" /></cc:Work></rdf:RDF></metadata><defs
     id="defs6" /><path
     id="path16"
     style="fill:#231f20;fill-opacity:1;fill-rule:nonzero;stroke:none;stroke-width:0.133333"
     d="m 102.02293,40.809335 v 0 c -2.15573,-2.157333 -5.1484,-3.492 -8.48173,-3.492 -3.3276,0 -6.29587,1.334667 -8.42667,3.492 h -0.0561 c -2.14693,2.149333 -3.48027,5.152 -3.48027,8.472 0,3.333333 1.33334,6.309333 3.48027,8.445333 l 0.0561,0.04667 c 2.1308,2.149333 5.09907,3.469333 8.42667,3.469333 3.33333,0 6.326,-1.32 8.48173,-3.469333 l 0.0244,-0.04667 c 2.16,-2.136 3.47507,-5.112 3.47507,-8.445333 0,-3.32 -1.31507,-6.322667 -3.47507,-8.472 z M 93.5412,204.5788 v 0 c 3.33333,0 6.326,-1.36 8.48173,-3.48027 l 0.0244,-0.064 c 2.16,-2.12507 3.47507,-5.124 3.47507,-8.41987 0,-3.33333 -1.31507,-6.32133 -3.47507,-8.4776 h -0.0244 c -2.15573,-2.19066 -5.1484,-3.512 -8.48173,-3.512 -3.3276,0 -6.29587,1.32134 -8.42667,3.512 h -0.0561 c -2.14693,2.15627 -3.48027,5.14427 -3.48027,8.4776 0,3.29587 1.33334,6.2948 3.48027,8.41987 l 0.0561,0.064 c 2.1308,2.12027 5.09907,3.48027 8.42667,3.48027 z m 65.18013,-36.248 v 0 c 2.96133,-0.77867 5.64667,-2.6812 7.28133,-5.5536 l 0.224,-0.41987 v 0 c 1.45467,-2.73226 1.72134,-5.8812 0.944,-8.66813 -0.784,-2.98547 -2.708,-5.6308 -5.57866,-7.28133 l -0.168,-0.11454 c -2.796,-1.52653 -5.98134,-1.864 -8.908,-1.076 -2.97467,0.74267 -5.64667,2.73227 -7.276,5.58014 -1.64934,2.83186 -1.996,6.08653 -1.20534,9.08906 0.816,2.948 2.724,5.61614 5.57467,7.2828 h 0.02 c 2.856,1.6412 6.09067,1.9428 9.092,1.16147 z M 105.812,108.68867 v 0 c -3.14227,-3.13534 -7.47507,-5.09934 -12.2708,-5.09934 -4.78854,0 -9.112,1.964 -12.24853,5.09934 -3.120805,3.1208 -5.047872,7.44426 -5.047872,12.23386 0,4.80254 1.927067,9.13534 5.047872,12.29627 3.13653,3.11467 7.45999,5.06253 12.24853,5.06253 4.79573,0 9.12853,-1.94786 12.2708,-5.06253 3.13066,-3.16093 5.05733,-7.49373 5.05733,-12.29627 0,-4.7896 -1.92667,-9.11306 -5.05733,-12.23386 z M 98.91146,88.294667 v 0 c 6.9636,1.145333 13.2156,4.478667 17.9948,9.294667 h 0.0364 c 0.7584,0.768 1.50054,1.592 2.18334,2.431996 l 11.9464,-6.915996 c -1.60787,-4.848 -1.6792,-9.924 -0.38854,-14.68 1.70414,-6.365333 5.83347,-12.068 12.02414,-15.650666 l 0.204,-0.122667 c 6.12266,-3.470666 13.08533,-4.185333 19.36933,-2.484 6.36667,1.706667 12.10533,5.852 15.68133,12.038667 v 0.0093 c 3.55334,6.153333 4.276,13.209333 2.57867,19.558666 -1.692,6.369333 -5.84,12.108006 -12.024,15.664006 l -1.63067,0.96933 h -0.16533 c -5.724,2.72493 -12.01333,3.14467 -17.79067,1.628 -4.74933,-1.2624 -9.09866,-3.90667 -12.50666,-7.66533 l -11.9276,6.88573 c 1.3724,3.62707 2.1296,7.54053 2.1296,11.66613 0,4.11347 -0.7572,8.07654 -2.1296,11.7296 l 11.9276,6.86094 c 3.408,-3.81294 7.75733,-6.40094 12.50666,-7.66294 6.36534,-1.74226 13.41867,-1.00266 19.58667,2.59374 l 0.39467,0.1828 v 0.0265 c 5.956,3.60267 9.956,9.1828 11.62933,15.48027 1.69733,6.30933 0.97467,13.36666 -2.57867,19.53066 l -0.21733,0.4344 v 0 L 177.72,170.06 c -3.57334,5.93746 -9.20267,9.96146 -15.41867,11.66826 -6.376,1.6796 -13.43333,0.96094 -19.59333,-2.57866 v -0.0495 c -6.19067,-3.58547 -10.32,-9.3 -12.02414,-15.65466 -1.29066,-4.74534 -1.21933,-9.81614 0.38854,-14.66827 l -11.9464,-6.89173 c -0.6828,0.8412 -1.42494,1.6276 -2.18334,2.39426 l -0.0364,0.0391 c -4.7792,4.79333 -11.0312,8.1224 -17.9948,9.23187 v 13.80666 c 4.9636,1.036 9.40054,3.51627 12.8828,6.99854 v 0 l 0.0177,0.0359 c 4.66666,4.64173 7.55573,11.11093 7.55573,18.22293 0,7.08654 -2.88907,13.52134 -7.55573,18.18654 l -0.0177,0.0708 v 0 c -4.69733,4.66826 -11.1416,7.55986 -18.25306,7.55986 -7.07347,0 -13.5376,-2.8916 -18.221869,-7.55986 h -0.01933 v -0.0708 c -4.6724,-4.6652 -7.5656,-11.1 -7.5656,-18.18654 0,-7.112 2.8932,-13.5812 7.5656,-18.22293 v -0.0359 h 0.01933 c 3.475467,-3.48227 7.927069,-5.96254 12.870799,-6.99854 V 153.55067 C 81.22706,152.4412 74.984398,149.11213 70.213598,144.3188 l -0.04853,-0.0391 c -5.956667,-5.9848 -9.692133,-14.22186 -9.692133,-23.3572 0,-9.11306 3.735466,-17.34253 9.692133,-23.333196 h 0.04853 c 4.7708,-4.816 11.013472,-8.149334 17.976532,-9.294667 V 74.550668 c -4.94373,-1.074667 -9.395332,-3.553334 -12.870799,-7.012 h -0.01933 v -0.036 c -4.6724,-4.692 -7.5656,-11.109333 -7.5656,-18.221333 0,-7.074667 2.8932,-13.552 7.5656,-18.22 v 0 l 0.01933,-0.02667 c 4.684269,-4.68 11.148399,-7.572 18.221869,-7.572 7.11146,0 13.55573,2.892 18.25306,7.572 v 0.02667 h 0.0177 c 4.66666,4.668 7.55573,11.145333 7.55573,18.22 0,7.112 -2.88907,13.529333 -7.55573,18.221333 l -0.0177,0.036 c -3.48226,3.458666 -7.9192,5.937333 -12.8828,7.012 z m 67.0912,-9.161333 -0.096,-0.149333 c -1.648,-2.777334 -4.27866,-4.628 -7.18533,-5.433333 -3.00133,-0.789334 -6.236,-0.457334 -9.112,1.186666 h 0.02 c -2.87067,1.630667 -4.79333,4.296 -5.59467,7.286667 -0.79066,2.962666 -0.444,6.233333 1.20534,9.079999 l 0.056,0.07867 c 1.65333,2.814667 4.28266,4.702667 7.22,5.470667 2.952,0.822666 6.24133,0.476 9.076,-1.176 l 0.152,-0.07067 c 2.792,-1.666667 4.64933,-4.302667 5.42666,-7.188 0.792,-2.973333 0.47467,-6.233333 -1.168,-9.085333 v 0" /></svg>
