<?xml version="1.0" encoding="UTF-8" standalone="no"?>
<svg
   id="hg-readme-banner-v2"
   viewBox="0 0 800 200"
   width="800"
   height="200"
   version="1.1"
   sodipodi:docname="project.svg"
   xml:space="preserve"
   inkscape:version="1.4.1 (93de688d07, 2025-03-30)"
   xmlns:inkscape="http://www.inkscape.org/namespaces/inkscape"
   xmlns:sodipodi="http://sodipodi.sourceforge.net/DTD/sodipodi-0.dtd"
   xmlns="http://www.w3.org/2000/svg"
   xmlns:svg="http://www.w3.org/2000/svg"><sodipodi:namedview
     id="namedview4"
     pagecolor="#ffffff"
     bordercolor="#999999"
     borderopacity="1"
     inkscape:showpageshadow="0"
     inkscape:pageopacity="0"
     inkscape:pagecheckerboard="0"
     inkscape:deskcolor="#d1d1d1"
     inkscape:zoom="1.5794998"
     inkscape:cx="216.20769"
     inkscape:cy="72.174749"
     inkscape:window-width="1916"
     inkscape:window-height="1031"
     inkscape:window-x="1920"
     inkscape:window-y="27"
     inkscape:window-maximized="1"
     inkscape:current-layer="hg-readme-banner-v2" /><defs
     id="defs2"><linearGradient
       id="a"
       x1="112.46"
       y1="309.13"
       x2="314.5"
       y2="309.13"
       gradientUnits="userSpaceOnUse"
       gradientTransform="translate(-33.985 -122.816)"><stop
         offset="0"
         stop-color="#1992f4"
         id="stop1" /><stop
         offset="1"
         stop-color="#2b8af6"
         id="stop2" /></linearGradient></defs><style
     id="style2">.st3{font-family:'OpenSans-Bold'}.st4{font-size:29.5168px}.st5{fill-rule:evenodd;clip-rule:evenodd;fill:none}.st7{font-family:'OpenSans'}.st8{font-size:12px}@media (prefers-color-scheme:dark){text{fill:#f0f6fc!important}}</style><text
     y="107.939"
     x="192.432"
     style="font-family:'Open Sans', sans-serif;-inkscape-font-specification:'OpenSans-Bold, Bold';font-variant-ligatures:normal;font-variant-caps:normal;font-variant-numeric:normal;font-feature-settings:normal;text-align:start"
     class="st3 st4"
     font-weight="700"
     font-size="29.517"
     font-family="'Open Sans',sans-serif"
     fill="#3f3e4b"
     id="text2">hausgold/kafka</text><path
     class="st5"
     clip-rule="evenodd"
     fill="none"
     fill-rule="evenodd"
     d="M194.24 119.6h314.5v24h-314.5z"
     id="path2" /><text
     y="128.757"
     x="194.217"
     style="font-family:'Open Sans', sans-serif;-inkscape-font-specification:'Open Sans, sans-serif, Normal';font-variant-ligatures:normal;font-variant-caps:normal;font-variant-numeric:normal;font-feature-settings:normal;text-align:start"
     class="st7 st8"
     font-weight="400"
     font-size="12"
     font-family="'Open Sans',sans-serif"
     opacity=".75"
     fill="#3f3e4b"
     id="text3">mDNS enabled apache/kafka</text><path
     id="path16"
     style="fill:#231f20;fill-opacity:1;fill-rule:nonzero;stroke:none;stroke-width:0.133333"
     d="m 90.168295,50.569537 v 0 c -1.329709,-1.330698 -3.175665,-2.153955 -5.231748,-2.153955 -2.052549,0 -3.883454,0.823257 -5.197786,2.153955 h -0.0346 c -1.324282,1.325764 -2.14672,3.177886 -2.14672,5.225747 0,2.056085 0.822438,3.891759 2.14672,5.209298 l 0.0346,0.02879 c 1.314332,1.325764 3.145237,2.139974 5.197786,2.139974 2.056083,0 3.902039,-0.81421 5.231748,-2.139974 l 0.01505,-0.02879 c 1.332343,-1.317539 2.143512,-3.153213 2.143512,-5.209298 0,-2.047861 -0.811169,-3.899983 -2.143512,-5.225747 z M 84.936547,151.58674 v 0 c 2.056083,0 3.902039,-0.83888 5.231748,-2.14672 l 0.01505,-0.0395 c 1.332343,-1.3108 2.143512,-3.16062 2.143512,-5.1936 0,-2.05608 -0.811169,-3.89915 -2.143512,-5.2292 h -0.01505 c -1.329709,-1.35125 -3.175665,-2.16629 -5.231748,-2.16629 -2.052549,0 -3.883454,0.81504 -5.197786,2.16629 h -0.0346 c -1.324282,1.33005 -2.14672,3.17312 -2.14672,5.2292 0,2.03298 0.822438,3.8828 2.14672,5.1936 l 0.0346,0.0395 c 1.314332,1.30784 3.145237,2.14672 5.197786,2.14672 z m 40.204773,-22.35869 v 0 c 1.82663,-0.48031 3.48301,-1.65384 4.49131,-3.42561 l 0.13817,-0.25898 v 0 c 0.89728,-1.68533 1.06177,-3.62768 0.58229,-5.34673 -0.48359,-1.84151 -1.67037,-3.47322 -3.44106,-4.49131 l -0.10363,-0.0707 c -1.72464,-0.9416 -3.68944,-1.14976 -5.49468,-0.66371 -1.83486,0.4581 -3.48301,1.68534 -4.48803,3.44198 -1.01735,1.74676 -1.23118,3.75433 -0.74348,5.60636 0.50333,1.81841 1.68023,3.46418 3.4386,4.49222 h 0.0123 c 1.76166,1.01234 3.75689,1.19837 5.60818,0.71643 z M 92.505491,92.439252 v 0 c -1.938233,-1.933958 -4.610815,-3.145403 -7.568944,-3.145403 -2.953694,0 -5.620516,1.211445 -7.555208,3.145403 -1.924992,1.92499 -3.113657,4.591811 -3.113657,7.54616 0,2.962328 1.188665,5.634908 3.113657,7.584648 1.934692,1.92121 4.601514,3.1227 7.555208,3.1227 2.958129,0 5.630711,-1.20149 7.568944,-3.1227 1.931071,-1.94974 3.119491,-4.62232 3.119491,-7.584648 0,-2.954349 -1.18842,-5.62117 -3.119491,-7.54616 z m -4.25643,-12.579544 v 0 c 4.295327,0.706471 8.151721,2.762557 11.099654,5.733189 h 0.02245 c 0.4678,0.473722 0.925575,0.981987 1.346745,1.500118 l 7.36884,-4.265964 c -0.99177,-2.990371 -1.03577,-6.121378 -0.23966,-9.055001 1.05116,-3.9263 3.59824,-7.443852 7.4168,-9.653732 l 0.12583,-0.07566 c 3.77662,-2.140796 8.07137,-2.581621 11.9475,-1.532195 3.92713,1.052716 7.46688,3.609664 9.67265,7.425759 v 0.0057 c 2.19179,3.795534 2.63755,8.147856 1.59059,12.064287 -1.04367,3.928768 -3.60226,7.468529 -7.41671,9.661961 l -1.00584,0.597907 h -0.10198 c -3.53071,1.680807 -7.41013,1.939713 -10.97374,1.004192 -2.92951,-0.77868 -5.61229,-2.409734 -7.71443,-4.728172 l -7.35725,4.247295 c 0.84653,2.23727 1.31359,4.651192 1.31359,7.19597 0,2.537288 -0.46706,4.981818 -1.31359,7.235118 l 7.35725,4.232 c 2.10214,-2.35192 4.78492,-3.94826 7.71443,-4.7267 3.9263,-1.07467 8.27698,-0.61846 12.08156,1.59989 l 0.24344,0.11276 v 0.0163 c 3.67381,2.22222 6.14112,5.66419 7.17327,9.54863 1.04696,3.89176 0.6012,8.2449 -1.59059,12.04701 l -0.13406,0.26795 v 0 l -0.0156,-0.0238 c -2.20413,3.66238 -5.67644,6.14449 -9.51063,7.19728 -3.93288,1.03602 -8.28602,0.59274 -12.08567,-1.59058 v -0.0305 c -3.81856,-2.21161 -6.36564,-5.73648 -7.4168,-9.6562 -0.79611,-2.92705 -0.75211,-6.05484 0.23966,-9.04776 l -7.36884,-4.251 c -0.42117,0.51887 -0.878946,1.00395 -1.346747,1.47684 l -0.02245,0.0241 c -2.947934,2.95665 -6.804327,5.0101 -11.099655,5.69445 v 8.51631 c 3.061676,0.63903 5.798495,2.16892 7.946442,4.31688 v 0 l 0.01092,0.0221 c 2.878515,2.86314 4.66057,6.85351 4.66057,11.24037 0,4.37116 -1.782055,8.34031 -4.66057,11.21792 l -0.01092,0.0437 v 0 c -2.897434,2.8795 -6.872425,4.66311 -11.258956,4.66311 -4.363097,0 -8.350339,-1.78361 -11.239716,-4.66311 h -0.01192 v -0.0437 c -2.882056,-2.87761 -4.666656,-6.84676 -4.666656,-11.21792 0,-4.38686 1.7846,-8.37723 4.666656,-11.24037 v -0.0221 h 0.01192 c 2.143757,-2.14796 4.88962,-3.67785 7.939039,-4.31688 v -8.51631 c -4.295,-0.68435 -8.145634,-2.7378 -11.088386,-5.69445 l -0.02993,-0.0241 c -3.674225,-3.69158 -5.978357,-8.77241 -5.978357,-14.407317 0,-5.62117 2.304132,-10.697318 5.978357,-14.392515 h 0.02993 c 2.942752,-2.970632 6.793392,-5.026718 11.088386,-5.733189 v -8.477614 c -3.049419,-0.662882 -5.795282,-2.191788 -7.939039,-4.325182 h -0.01192 v -0.0222 C 70.80287,64.140524 69.01827,60.182148 69.01827,55.795284 c 0,-4.363836 1.7846,-8.359221 4.666656,-11.238563 v 0 l 0.01192,-0.01645 c 2.889377,-2.886744 6.876619,-4.670604 11.239716,-4.670604 4.386531,0 8.361522,1.78386 11.258956,4.670604 v 0.01645 h 0.01092 c 2.878515,2.879342 4.660572,6.874727 4.660572,11.238563 0,4.386864 -1.782057,8.34524 -4.660572,11.239386 l -0.01092,0.0222 c -2.147947,2.133394 -4.884766,3.6623 -7.946442,4.325182 z m 41.383569,-5.650945 -0.0592,-0.09211 c -1.01653,-1.71313 -2.63919,-2.854669 -4.4321,-3.351419 -1.85129,-0.486881 -3.84652,-0.282095 -5.62051,0.731966 h 0.0123 c -1.7707,1.005838 -2.95664,2.649883 -3.45093,4.494603 -0.4877,1.827449 -0.27387,3.84488 0.74348,5.600777 l 0.0346,0.04852 c 1.01981,1.736159 2.64165,2.900726 4.45348,3.374448 1.82087,0.507442 3.84981,0.293609 5.59831,-0.725387 l 0.0937,-0.04359 c 1.72218,-1.028043 2.86783,-2.653995 3.34731,-4.433743 0.48852,-1.834028 0.29279,-3.844879 -0.72046,-5.604066 v 0" /></svg>
