<?xml version="1.0" encoding="UTF-8" standalone="no"?>
<svg
   xmlns:dc="http://purl.org/dc/elements/1.1/"
   xmlns:cc="http://creativecommons.org/ns#"
   xmlns:rdf="http://www.w3.org/1999/02/22-rdf-syntax-ns#"
   xmlns:svg="http://www.w3.org/2000/svg"
   xmlns="http://www.w3.org/2000/svg"
   xmlns:sodipodi="http://sodipodi.sourceforge.net/DTD/sodipodi-0.dtd"
   xmlns:inkscape="http://www.inkscape.org/namespaces/inkscape"
   version="1.1"
   id="Ebene_1"
   x="0px"
   y="0px"
   viewBox="0 0 800 200"
   xml:space="preserve"
   width="800"
   height="200"
   sodipodi:docname="project.svg"
   inkscape:version="0.92.2 2405546, 2018-03-11"><sodipodi:namedview
   pagecolor="#ffffff"
   bordercolor="#666666"
   borderopacity="1"
   objecttolerance="10"
   gridtolerance="10"
   guidetolerance="10"
   inkscape:pageopacity="0"
   inkscape:pageshadow="2"
   inkscape:window-width="1916"
   inkscape:window-height="1031"
   id="namedview13"
   showgrid="false"
   inkscape:zoom="1.410678"
   inkscape:cx="178.18144"
   inkscape:cy="96.778879"
   inkscape:window-x="0"
   inkscape:window-y="47"
   inkscape:window-maximized="0"
   inkscape:current-layer="Ebene_1" /><metadata
   id="metadata33"><rdf:RDF><cc:Work
       rdf:about=""><dc:format>image/svg+xml</dc:format><dc:type
         rdf:resource="http://purl.org/dc/dcmitype/StillImage" /><dc:title></dc:title></cc:Work></rdf:RDF></metadata><defs
   id="defs31">

<linearGradient
   id="XMLID_17_-9"
   gradientUnits="userSpaceOnUse"
   x1="174.0737"
   y1="215.5488"
   x2="132.27631"
   y2="141.7533"><stop
     offset="0"
     style="stop-color:#FB7655"
     id="stop3272-4" /><stop
     offset="0"
     style="stop-color:#FB7655"
     id="stop3274-5" /><stop
     offset="0.41"
     style="stop-color:#E42B1E"
     id="stop3276-1" /><stop
     offset="0.99"
     style="stop-color:#990000"
     id="stop3278-0" /><stop
     offset="1"
     style="stop-color:#990000"
     id="stop3280-3" /></linearGradient><linearGradient
   id="XMLID_18_-7"
   gradientUnits="userSpaceOnUse"
   x1="194.895"
   y1="153.5576"
   x2="141.0276"
   y2="117.4093"><stop
     offset="0"
     style="stop-color:#871101"
     id="stop3285-8" /><stop
     offset="0"
     style="stop-color:#871101"
     id="stop3287-8" /><stop
     offset="0.99"
     style="stop-color:#911209"
     id="stop3289-6" /><stop
     offset="1"
     style="stop-color:#911209"
     id="stop3291-0" /></linearGradient><linearGradient
   id="XMLID_19_-4"
   gradientUnits="userSpaceOnUse"
   x1="151.79539"
   y1="217.7852"
   x2="97.929703"
   y2="181.638"><stop
     offset="0"
     style="stop-color:#871101"
     id="stop3296-6" /><stop
     offset="0"
     style="stop-color:#871101"
     id="stop3298-7" /><stop
     offset="0.99"
     style="stop-color:#911209"
     id="stop3300-6" /><stop
     offset="1"
     style="stop-color:#911209"
     id="stop3302-0" /></linearGradient><linearGradient
   id="XMLID_20_-9"
   gradientUnits="userSpaceOnUse"
   x1="38.696301"
   y1="127.3906"
   x2="47.046902"
   y2="181.66141"><stop
     offset="0"
     style="stop-color:#FFFFFF"
     id="stop3307-7" /><stop
     offset="0"
     style="stop-color:#FFFFFF"
     id="stop3309-5" /><stop
     offset="0.23"
     style="stop-color:#E57252"
     id="stop3311-9" /><stop
     offset="0.46"
     style="stop-color:#DE3B20"
     id="stop3313-7" /><stop
     offset="0.99"
     style="stop-color:#A60003"
     id="stop3315-8" /><stop
     offset="1"
     style="stop-color:#A60003"
     id="stop3317-5" /></linearGradient><linearGradient
   id="XMLID_21_-3"
   gradientUnits="userSpaceOnUse"
   x1="96.132797"
   y1="76.715302"
   x2="99.209602"
   y2="132.1021"><stop
     offset="0"
     style="stop-color:#FFFFFF"
     id="stop3322-3" /><stop
     offset="0"
     style="stop-color:#FFFFFF"
     id="stop3324-8" /><stop
     offset="0.23"
     style="stop-color:#E4714E"
     id="stop3326-3" /><stop
     offset="0.56"
     style="stop-color:#BE1A0D"
     id="stop3328-7" /><stop
     offset="0.99"
     style="stop-color:#A80D00"
     id="stop3330-9" /><stop
     offset="1"
     style="stop-color:#A80D00"
     id="stop3332-3" /></linearGradient><linearGradient
   id="XMLID_22_-7"
   gradientUnits="userSpaceOnUse"
   x1="147.103"
   y1="25.521"
   x2="156.3141"
   y2="65.216202"><stop
     offset="0"
     style="stop-color:#FFFFFF"
     id="stop3337-8" /><stop
     offset="0"
     style="stop-color:#FFFFFF"
     id="stop3339-7" /><stop
     offset="0.18"
     style="stop-color:#E46342"
     id="stop3341-4" /><stop
     offset="0.4"
     style="stop-color:#C82410"
     id="stop3343-1" /><stop
     offset="0.99"
     style="stop-color:#A80D00"
     id="stop3345-9" /><stop
     offset="1"
     style="stop-color:#A80D00"
     id="stop3347-0" /></linearGradient><linearGradient
   id="XMLID_23_-9"
   gradientUnits="userSpaceOnUse"
   x1="118.9761"
   y1="11.5415"
   x2="158.66859"
   y2="-8.3048"><stop
     offset="0"
     style="stop-color:#FFFFFF"
     id="stop3352-8" /><stop
     offset="0"
     style="stop-color:#FFFFFF"
     id="stop3354-8" /><stop
     offset="0.54"
     style="stop-color:#C81F11"
     id="stop3356-5" /><stop
     offset="0.99"
     style="stop-color:#BF0905"
     id="stop3358-8" /><stop
     offset="1"
     style="stop-color:#BF0905"
     id="stop3360-4" /></linearGradient><linearGradient
   id="XMLID_24_-3"
   gradientUnits="userSpaceOnUse"
   x1="3.9033"
   y1="113.5547"
   x2="7.1701999"
   y2="146.2628"><stop
     offset="0"
     style="stop-color:#FFFFFF"
     id="stop3365-7" /><stop
     offset="0"
     style="stop-color:#FFFFFF"
     id="stop3367-1" /><stop
     offset="0.31"
     style="stop-color:#DE4024"
     id="stop3369-3" /><stop
     offset="0.99"
     style="stop-color:#BF190B"
     id="stop3371-8" /><stop
     offset="1"
     style="stop-color:#BF190B"
     id="stop3373-0" /></linearGradient><linearGradient
   id="XMLID_25_-9"
   gradientUnits="userSpaceOnUse"
   x1="-18.5557"
   y1="155.10451"
   x2="135.0152"
   y2="-2.8092999"
   gradientTransform="translate(-208.94124,-12.919516)"><stop
     offset="0"
     style="stop-color:#BD0012"
     id="stop3380-7" /><stop
     offset="0"
     style="stop-color:#BD0012"
     id="stop3382-9" /><stop
     offset="0.07"
     style="stop-color:#FFFFFF"
     id="stop3384-9" /><stop
     offset="0.17"
     style="stop-color:#FFFFFF"
     id="stop3386-3" /><stop
     offset="0.27"
     style="stop-color:#C82F1C"
     id="stop3388-2" /><stop
     offset="0.33"
     style="stop-color:#820C01"
     id="stop3390-4" /><stop
     offset="0.46"
     style="stop-color:#A31601"
     id="stop3392-3" /><stop
     offset="0.72"
     style="stop-color:#B31301"
     id="stop3394-7" /><stop
     offset="0.99"
     style="stop-color:#E82609"
     id="stop3396-1" /><stop
     offset="1"
     style="stop-color:#E82609"
     id="stop3398-2" /></linearGradient><linearGradient
   id="XMLID_26_-2"
   gradientUnits="userSpaceOnUse"
   x1="99.074699"
   y1="171.0332"
   x2="52.817699"
   y2="159.61659"
   gradientTransform="translate(-208.94124,-12.919516)"><stop
     offset="0"
     style="stop-color:#8C0C01"
     id="stop3403-0" /><stop
     offset="0"
     style="stop-color:#8C0C01"
     id="stop3405-2" /><stop
     offset="0.54"
     style="stop-color:#990C00"
     id="stop3407-1" /><stop
     offset="0.99"
     style="stop-color:#A80D0E"
     id="stop3409-7" /><stop
     offset="1"
     style="stop-color:#A80D0E"
     id="stop3411-5" /></linearGradient><linearGradient
   id="XMLID_27_-1"
   gradientUnits="userSpaceOnUse"
   x1="178.52589"
   y1="115.5146"
   x2="137.43269"
   y2="78.683998"
   gradientTransform="translate(-208.94124,-12.919516)"><stop
     offset="0"
     style="stop-color:#7E110B"
     id="stop3416-7" /><stop
     offset="0"
     style="stop-color:#7E110B"
     id="stop3418-4" /><stop
     offset="0.99"
     style="stop-color:#9E0C00"
     id="stop3420-1" /><stop
     offset="1"
     style="stop-color:#9E0C00"
     id="stop3422-7" /></linearGradient><linearGradient
   id="XMLID_28_-1"
   gradientUnits="userSpaceOnUse"
   x1="193.6235"
   y1="47.937"
   x2="173.15421"
   y2="26.053801"
   gradientTransform="translate(-208.94124,-12.919516)"><stop
     offset="0"
     style="stop-color:#79130D"
     id="stop3427-1" /><stop
     offset="0"
     style="stop-color:#79130D"
     id="stop3429-1" /><stop
     offset="0.99"
     style="stop-color:#9E120B"
     id="stop3431-7" /><stop
     offset="1"
     style="stop-color:#9E120B"
     id="stop3433-0" /></linearGradient><radialGradient
   id="XMLID_29_-4"
   cx="143.8315"
   cy="79.388199"
   r="50.357601"
   gradientUnits="userSpaceOnUse"
   gradientTransform="translate(-208.94124,-12.919516)"><stop
     offset="0"
     style="stop-color:#A80D00"
     id="stop3440-0" /><stop
     offset="0"
     style="stop-color:#A80D00"
     id="stop3442-8" /><stop
     offset="0.99"
     style="stop-color:#7E0E08"
     id="stop3444-5" /><stop
     offset="1"
     style="stop-color:#7E0E08"
     id="stop3446-1" /></radialGradient><radialGradient
   id="XMLID_30_-6"
   cx="74.0923"
   cy="145.75101"
   r="66.943703"
   gradientUnits="userSpaceOnUse"
   gradientTransform="translate(-208.94124,-12.919516)"><stop
     offset="0"
     style="stop-color:#A30C00"
     id="stop3451-6" /><stop
     offset="0"
     style="stop-color:#A30C00"
     id="stop3453-2" /><stop
     offset="0.99"
     style="stop-color:#800E08"
     id="stop3455-1" /><stop
     offset="1"
     style="stop-color:#800E08"
     id="stop3457-9" /></radialGradient><linearGradient
   id="XMLID_31_-6"
   gradientUnits="userSpaceOnUse"
   x1="26.669901"
   y1="197.33591"
   x2="9.9886999"
   y2="140.742"
   gradientTransform="translate(-208.94124,-12.919516)"><stop
     offset="0"
     style="stop-color:#8B2114"
     id="stop3462-4" /><stop
     offset="0"
     style="stop-color:#8B2114"
     id="stop3464-8" /><stop
     offset="0.43"
     style="stop-color:#9E100A"
     id="stop3466-0" /><stop
     offset="0.99"
     style="stop-color:#B3100C"
     id="stop3468-8" /><stop
     offset="1"
     style="stop-color:#B3100C"
     id="stop3470-1" /></linearGradient><linearGradient
   id="XMLID_32_-0"
   gradientUnits="userSpaceOnUse"
   x1="154.6411"
   y1="9.7979002"
   x2="192.039"
   y2="26.305901"
   gradientTransform="translate(-208.94124,-12.919516)"><stop
     offset="0"
     style="stop-color:#B31000"
     id="stop3475-2" /><stop
     offset="0"
     style="stop-color:#B31000"
     id="stop3477-2" /><stop
     offset="0.44"
     style="stop-color:#910F08"
     id="stop3479-9" /><stop
     offset="0.99"
     style="stop-color:#791C12"
     id="stop3481-7" /><stop
     offset="1"
     style="stop-color:#791C12"
     id="stop3483-5" /></linearGradient></defs>
<style
   type="text/css"
   id="style2">
    .st0{fill-rule:evenodd;clip-rule:evenodd;fill:#E73E11;}
    .st1{fill-rule:evenodd;clip-rule:evenodd;fill:#0371B9;}
    .st2{fill:#132E48;}
    .st3{font-family:'OpenSans-Bold';}
    .st4{font-size:29.5168px;}
    .st5{fill-rule:evenodd;clip-rule:evenodd;fill:none;}
    .st6{opacity:0.5;fill:#132E48;}
    .st7{font-family:'OpenSans';}
    .st8{font-size:12px;}
</style>
<text
   class="st2 st3 st4"
   id="text10"
   style="font-style:normal;font-variant:normal;font-weight:bold;font-stretch:normal;font-size:29.51733398px;font-family:'Open Sans', sans-serif;-inkscape-font-specification:'OpenSans-Bold, Bold';font-variant-ligatures:normal;font-variant-caps:normal;font-variant-numeric:normal;font-feature-settings:normal;text-align:start;writing-mode:lr-tb;text-anchor:start;fill:#132e48"
   x="192.43155"
   y="107.939">hausgold/kafka</text>

<rect
   x="194.23985"
   y="119.60001"
   class="st5"
   width="314.5"
   height="24"
   id="rect12"
   style="clip-rule:evenodd;fill:none;fill-rule:evenodd" /><text
   class="st6 st7 st8"
   id="text14"
   style="font-style:normal;font-variant:normal;font-weight:normal;font-stretch:normal;font-size:12px;font-family:'Open Sans', sans-serif;-inkscape-font-specification:'Open Sans, sans-serif, Normal';font-variant-ligatures:normal;font-variant-caps:normal;font-variant-numeric:normal;font-feature-settings:normal;text-align:start;writing-mode:lr-tb;text-anchor:start;opacity:0.5;fill:#132e48"
   x="194.21715"
   y="128.75729">mDNS enabled apache/kafka</text>


<g
   id="g12"
   transform="matrix(0.10133784,0,0,-0.10133784,25.217397,191.9231)"><path
     d="m 765.172,1508.13 v 0 c -16.168,16.18 -38.613,26.19 -63.613,26.19 -24.957,0 -47.219,-10.01 -63.2,-26.19 h -0.421 c -16.102,-16.12 -26.102,-38.64 -26.102,-63.54 0,-25 10,-47.32 26.102,-63.34 l 0.421,-0.35 c 15.981,-16.12 38.243,-26.02 63.2,-26.02 25,0 47.445,9.9 63.613,26.02 l 0.183,0.35 c 16.2,16.02 26.063,38.34 26.063,63.34 0,24.9 -9.863,47.42 -26.063,63.54 z M 701.559,279.859 v 0 c 25,0 47.445,10.2 63.613,26.102 l 0.183,0.48 c 16.2,15.938 26.063,38.43 26.063,63.149 0,25 -9.863,47.41 -26.063,63.582 h -0.183 c -16.168,16.43 -38.613,26.34 -63.613,26.34 -24.957,0 -47.219,-9.91 -63.2,-26.34 h -0.421 C 621.836,417 611.836,394.59 611.836,369.59 c 0,-24.719 10,-47.211 26.102,-63.149 l 0.421,-0.48 c 15.981,-15.902 38.243,-26.102 63.2,-26.102 z m 488.851,271.86 v 0 c 22.21,5.84 42.35,20.109 54.61,41.652 l 1.68,3.149 v 0 c 10.91,20.492 12.91,44.109 7.08,65.011 -5.88,22.391 -20.31,42.231 -41.84,54.61 l -1.26,0.859 c -20.97,11.449 -44.86,13.98 -66.81,8.07 -22.31,-5.57 -42.35,-20.492 -54.57,-41.851 -12.37,-21.239 -14.97,-45.649 -9.04,-68.168 6.12,-22.11 20.43,-42.121 41.81,-54.621 h 0.15 c 21.42,-12.309 45.68,-14.571 68.19,-8.711 z M 793.59,999.035 v 0 c -23.567,23.515 -56.063,38.245 -92.031,38.245 -35.914,0 -68.34,-14.73 -91.864,-38.245 -23.406,-23.406 -37.859,-55.832 -37.859,-91.754 0,-36.019 14.453,-68.515 37.859,-92.222 23.524,-23.36 55.95,-37.969 91.864,-37.969 35.968,0 68.464,14.609 92.031,37.969 23.48,23.707 37.93,56.203 37.93,92.222 0,35.922 -14.45,68.348 -37.93,91.754 z m -51.754,152.955 v 0 c 52.227,-8.59 99.117,-33.59 134.961,-69.71 h 0.273 c 5.688,-5.76 11.254,-11.94 16.375,-18.24 l 89.598,51.87 c -12.059,36.36 -12.594,74.43 -2.914,110.1 12.781,47.74 43.751,90.51 90.181,117.38 l 1.53,0.92 c 45.92,26.03 98.14,31.39 145.27,18.63 47.75,-12.8 90.79,-43.89 117.61,-90.29 v -0.07 c 26.65,-46.15 32.07,-99.07 19.34,-146.69 -12.69,-47.77 -43.8,-90.81 -90.18,-117.48 l -12.23,-7.27 h -1.24 c -42.93,-20.437 -90.1,-23.585 -133.43,-12.21 -35.62,9.468 -68.24,29.3 -93.8,57.49 l -89.457,-51.643 c 10.293,-27.203 15.972,-56.554 15.972,-87.496 0,-30.851 -5.679,-60.574 -15.972,-87.972 l 89.457,-51.457 c 25.56,28.597 58.18,48.007 93.8,57.472 47.74,13.067 100.64,7.52 146.9,-19.453 l 2.96,-1.371 v -0.199 c 44.67,-27.02 74.67,-68.871 87.22,-116.102 12.73,-47.32 7.31,-100.25 -19.34,-146.48 l -1.63,-3.258 v 0 l -0.19,0.289 c -26.8,-44.531 -69.02,-74.711 -115.64,-87.512 -47.82,-12.597 -100.75,-7.207 -146.95,19.34 v 0.371 c -46.43,26.891 -77.4,69.75 -90.181,117.41 -9.68,35.59 -9.145,73.621 2.914,110.012 l -89.598,51.688 c -5.121,-6.309 -10.687,-12.207 -16.375,-17.957 l -0.273,-0.293 C 840.953,695.859 794.063,670.891 741.836,662.57 V 559.02 c 37.227,-7.77 70.504,-26.372 96.621,-52.489 v 0 l 0.133,-0.269 c 35,-34.813 56.668,-83.332 56.668,-136.672 0,-53.149 -21.668,-101.41 -56.668,-136.399 l -0.133,-0.531 v 0 c -35.23,-35.012 -83.562,-56.699 -136.898,-56.699 -53.051,0 -101.532,21.687 -136.664,56.699 h -0.145 v 0.531 c -35.043,34.989 -56.742,83.25 -56.742,136.399 0,53.34 21.699,101.859 56.742,136.672 v 0.269 h 0.145 c 26.066,26.117 59.453,44.719 96.531,52.489 v 103.55 c -52.223,8.321 -99.043,33.289 -134.824,69.239 l -0.364,0.293 c -44.675,44.886 -72.691,106.664 -72.691,175.179 0,68.348 28.016,130.069 72.691,174.999 h 0.364 c 35.781,36.12 82.601,61.12 134.824,69.71 v 103.08 c -37.078,8.06 -70.465,26.65 -96.531,52.59 h -0.145 v 0.27 c -35.043,35.19 -56.742,83.32 -56.742,136.66 0,53.06 21.699,101.64 56.742,136.65 v 0 l 0.145,0.2 c 35.132,35.1 83.613,56.79 136.664,56.79 53.336,0 101.668,-21.69 136.898,-56.79 v -0.2 h 0.133 c 35,-35.01 56.668,-83.59 56.668,-136.65 0,-53.34 -21.668,-101.47 -56.668,-136.66 l -0.133,-0.27 c -26.117,-25.94 -59.394,-44.53 -96.621,-52.59 z m 503.184,68.71 -0.72,1.12 c -12.36,20.83 -32.09,34.71 -53.89,40.75 -22.51,5.92 -46.77,3.43 -68.34,-8.9 h 0.15 c -21.53,-12.23 -35.95,-32.22 -41.96,-54.65 -5.93,-22.22 -3.33,-46.75 9.04,-68.1 l 0.42,-0.59 c 12.4,-21.11 32.12,-35.27 54.15,-41.03 22.14,-6.17 46.81,-3.57 68.07,8.82 l 1.14,0.53 c 20.94,12.5 34.87,32.27 40.7,53.91 5.94,22.3 3.56,46.75 -8.76,68.14 v 0"
     style="fill:#231f20;fill-opacity:1;fill-rule:nonzero;stroke:none"
     id="path16"
     inkscape:connector-curvature="0" /></g></svg>
